<mxfile host="app.diagrams.net" modified="2023-07-06T12:16:31.045Z" agent="Mozilla/5.0 (Windows NT 10.0; Win64; x64) AppleWebKit/537.36 (KHTML, like Gecko) Chrome/114.0.0.0 Safari/537.36 Edg/114.0.1823.67" version="21.6.1" etag="9uqqyU3W-IPBivSyoDuS" type="github">
  <diagram name="Page-1" id="1XlBov9hj5RVoVav8G03">
    <mxGraphModel>
      <root>
        <mxCell id="0" />
        <mxCell id="1" parent="0" />
      </root>
    </mxGraphModel>
  </diagram>
</mxfile>
